# xmcd
# Track frame offsets:
# 150
# 13042
# 16420
# 30132
# 48922
# 67817
# 84208
# 98070
# 115074
# 133120
# 150102
# 167561
# 184468
# 196523
#
# Disc length: 2861 seconds
# Revision: 0
# Processed by: cddbd v1.5.2PL0 Copyright (c) Steve Scherf et al.
# Submitted via: VisiTrax 2.10.0.248 - For more info visit www.synapsa.com
#
DISCID=940b2b0e
DTITLE=Neal McCoy - That's Life
DYEAR=2005
DGENRE=Country
TTITLE0=Neal McCoy - Got Mud
TTITLE1=Neal McCoy - Intro
TTITLE2=Neal McCoy - The Last Of A Dying Breed
TTITLE3=Neal McCoy - That's Life
TTITLE4=Neal McCoy - All Over Again
TTITLE5=Neal McCoy - Billy's Got His Beer Goggles On
TTITLE6=Neal McCoy - That's A Picture
TTITLE7=Neal McCoy - You Let Me Be The Hero
TTITLE8=Neal McCoy - Tailgate
TTITLE9=Neal McCoy - Tails I Lose
TTITLE10=Neal McCoy - Jessie
TTITLE11=Neal McCoy - Charley Pride - You're My Jamaica
TTITLE12=Neal McCoy - Head South
TTITLE13=Neal McCoy - Hillbilly Rap (Live)
EXTD=
EXTT0=
EXTT1=
EXTT2=
EXTT3=
EXTT4=
EXTT5=
EXTT6=
EXTT7=
EXTT8=
EXTT9=
EXTT10=
EXTT11=
EXTT12=
EXTT13=
PLAYORDER=
